UNKNOWN
version=1
nRows=78
nColumns=9
inDegrees=no
endheader
time	time	Pelvic Tilt	Right Hip Flexion	Right Knee Angle	Right Ankle Angle	Left Hip Flexion	Left Knee Angle	Left Ankle Angle
    100.00000000	      6.00000000	     -0.87685003	    -11.64588571	     -6.41548323	     -3.73691510	      3.38896962	    -58.63443010	    -17.19716626
    101.00000000	      6.01000000	     -0.89719324	    -12.65946622	     -5.87648453	     -3.43720867	      4.79219458	    -57.37177386	    -16.07974579
    102.00000000	      6.02000000	     -0.97463401	    -13.66032815	     -5.39526371	     -3.11233493	      6.03445084	    -55.76618321	    -14.84943262
    103.00000000	      6.03000000	     -1.11707525	    -14.65148889	     -4.96484002	     -2.77056645	      7.11318943	    -53.82336672	    -13.58768197
    104.00000000	      6.04000000	     -1.33901200	    -15.65102751	     -4.57126927	     -2.42517612	      8.02259350	    -51.55678185	    -12.37302099
    105.00000000	      6.05000000	     -1.65117917	    -16.65713400	     -4.20808776	     -2.07798182	      8.78081289	    -48.98763804	    -11.25629992
    106.00000000	      6.06000000	     -2.05375906	    -17.72376798	     -3.82770613	     -1.74710579	      9.37908914	    -46.14141374	    -10.23134491
    107.00000000	      6.07000000	     -2.56149140	    -18.78278228	     -3.45743579	     -1.40205000	      9.89084296	    -43.05372613	     -9.32329684
    108.00000000	      6.08000000	     -3.14109109	    -19.91505384	     -3.03741448	     -1.06682653	     10.26818768	    -39.73348725	     -8.45296120
    109.00000000	      6.09000000	     -3.76236656	    -21.09682672	     -2.57214511	     -0.73885425	     10.52681834	    -36.19228985	     -7.59310076
    110.00000000	      6.10000000	     -4.40116721	    -22.31933330	     -2.07095228	     -0.42475576	     10.66060067	    -32.44223521	     -6.71025848
    111.00000000	      6.11000000	     -5.06196799	    -23.57018661	     -1.55419323	     -0.13082631	     10.67449828	    -28.52299173	     -5.83108630
    112.00000000	      6.12000000	     -5.71041253	    -24.83639463	     -1.03560949	      0.13619415	     10.58831997	    -24.47812223	     -4.95543489
    113.00000000	      6.13000000	     -6.32062994	    -26.12227162	     -0.54750568	      0.38863732	     10.39870308	    -20.36192465	     -4.15653616
    114.00000000	      6.14000000	     -6.87686747	    -27.41397959	     -0.11264950	      0.63501648	     10.14309090	    -16.27064065	     -3.47248308
    115.00000000	      6.15000000	     -7.36542655	    -28.65758035	      0.19478550	      0.89550237	      9.84527563	    -12.30257496	     -2.92025664
    116.00000000	      6.16000000	     -7.79856466	    -29.77562365	      0.29221423	      1.18943239	      9.50587992	     -8.53896839	     -2.52446839
    117.00000000	      6.17000000	     -8.24478421	    -30.71950917	      0.10348961	      1.49037252	      9.09175676	     -5.08571324	     -2.28523467
    118.00000000	      6.18000000	     -8.76680767	    -31.39112852	     -0.53678807	      1.86767241	      8.59152389	     -2.10300896	     -2.21488059
    119.00000000	      6.19000000	     -9.49730141	    -31.70742664	     -1.67165696	      2.27331278	      8.07820578	      0.17141538	     -2.23885681
    120.00000000	      6.20000000	    -10.40033031	    -31.69297288	     -3.31294409	      2.67973360	      7.58713475	      1.55026534	     -2.29388087
    121.00000000	      6.21000000	     -9.80675619	    -32.67400021	     -3.86217028	      2.85682418	      7.54366609	      2.20277625	     -2.06153232
    122.00000000	      6.22000000	     -8.93047745	    -33.49457154	     -4.54893274	      2.95887605	      7.73871192	      1.96499173	     -1.85279601
    123.00000000	      6.23000000	     -9.17280721	    -33.30057542	     -6.52448252	      3.02850100	      7.73474068	      0.83118559	     -2.03761663
    124.00000000	      6.24000000	     -9.14698589	    -33.13226162	     -8.51371414	      2.88660462	      7.79119346	     -0.75059048	     -2.45729109
    125.00000000	      6.25000000	     -8.87745530	    -33.03230341	    -10.50912214	      2.45960875	      7.79613145	     -2.46746892	     -3.32667913
    126.00000000	      6.26000000	     -8.51201131	    -32.88685245	    -12.59352777	      1.68446703	      7.76203579	     -4.14056411	     -4.70393639
    127.00000000	      6.27000000	     -8.06746864	    -32.67671710	    -14.81930496	      0.45692382	      7.58011711	     -5.56705155	     -6.60254854
    128.00000000	      6.28000000	     -7.56432766	    -32.28042344	    -17.27523391	     -1.24947467	      7.27786788	     -6.76373248	     -8.69237448
    129.00000000	      6.29000000	     -6.97288878	    -31.63705264	    -20.01583322	     -3.47622685	      6.89539157	     -7.83923651	    -10.54928186
    130.00000000	      6.30000000	     -6.27555208	    -30.72535845	    -23.04554337	     -6.27685937	      6.51617056	     -8.96506063	    -11.80088133
    131.00000000	      6.31000000	     -5.43958878	    -29.55154155	    -26.34043492	     -9.63781452	      6.19295386	    -10.27389767	    -12.18066388
    132.00000000	      6.32000000	     -4.57582774	    -28.16066861	    -29.80397070	    -13.58317069	      5.96602708	    -11.79319762	    -11.87124878
    133.00000000	      6.33000000	     -3.70494544	    -26.64591759	    -33.32331511	    -17.91723122	      5.73987712	    -13.41541627	    -10.98289661
    134.00000000	      6.34000000	     -2.94062012	    -25.11003688	    -36.75152088	    -22.44504705	      5.40935726	    -14.98661899	     -9.74370913
    135.00000000	      6.35000000	     -2.38378936	    -23.57098007	    -39.97740070	    -26.86596729	      4.92194988	    -16.36105820	     -8.35057136
    136.00000000	      6.36000000	     -2.02995476	    -22.04113556	    -42.96311647	    -30.65755504	      4.22092498	    -17.42601679	     -6.90935602
    137.00000000	      6.37000000	     -1.86335786	    -20.60092937	    -45.66322531	    -33.27189926	      3.25354739	    -18.11416954	     -5.54782080
    138.00000000	      6.38000000	     -1.86723131	    -19.15309356	    -48.07962766	    -34.49252311	      2.12025494	    -18.42697217	     -4.41724568
    139.00000000	      6.39000000	     -1.98753857	    -17.65840575	    -50.19131168	    -34.28993465	      0.89792219	    -18.38709794	     -3.54994573
    140.00000000	      6.40000000	     -2.15230360	    -16.05260001	    -51.99616601	    -32.83341324	     -0.32597238	    -18.05806745	     -2.90335773
    141.00000000	      6.41000000	     -2.32921989	    -14.37205355	    -53.47212291	    -30.59918643	     -1.54513537	    -17.49867489	     -2.47360870
    142.00000000	      6.42000000	     -2.52713306	    -12.56058173	    -54.63161727	    -28.04481106	     -2.67474998	    -16.79448185	     -2.17747659
    143.00000000	      6.43000000	     -2.70086976	    -10.72255899	    -55.48207434	    -25.58407089	     -3.79123092	    -15.99911309	     -1.97620915
    144.00000000	      6.44000000	     -2.84191902	     -8.87654394	    -56.03383025	    -23.45776090	     -4.86961505	    -15.17364299	     -1.79043187
    145.00000000	      6.45000000	     -2.99168780	     -7.06426238	    -56.28102110	    -21.65341358	     -5.93590934	    -14.35520944	     -1.60275734
    146.00000000	      6.46000000	     -3.14951650	     -5.32342748	    -56.21649379	    -20.10978681	     -6.98990434	    -13.57131643	     -1.38486757
    147.00000000	      6.47000000	     -3.28690627	     -3.67377920	    -55.84015061	    -18.72660509	     -8.00952971	    -12.83153511	     -1.11769848
    148.00000000	      6.48000000	     -3.41804332	     -2.14603824	    -55.14004419	    -17.38706361	     -9.01257611	    -12.13489625	     -0.82756090
    149.00000000	      6.49000000	     -3.51744311	     -0.73491723	    -54.14144906	    -16.00434085	     -9.99266660	    -11.48590651	     -0.54730098
    150.00000000	      6.50000000	     -3.59244905	      0.52798878	    -52.84246625	    -14.57208520	    -10.98904054	    -10.87127533	     -0.22832913
    151.00000000	      6.51000000	     -3.66937541	      1.69684500	    -51.24773797	    -13.18770599	    -11.93558427	    -10.31923293	      0.12521738
    152.00000000	      6.52000000	     -3.65097691	      2.73427668	    -49.39780984	    -11.85446269	    -12.91150620	     -9.77709614	      0.43640518
    153.00000000	      6.53000000	     -3.56529554	      3.65404900	    -47.29469554	    -10.70139748	    -13.90397623	     -9.24749938	      0.73351628
    154.00000000	      6.54000000	     -3.39810514	      4.44673735	    -44.95772611	     -9.78038343	    -14.92633724	     -8.72012939	      1.01215839
    155.00000000	      6.55000000	     -3.15116118	      5.11874836	    -42.41554371	     -9.09761391	    -15.98672674	     -8.18493084	      1.28275062
    156.00000000	      6.56000000	     -2.83743633	      5.69137022	    -39.69029262	     -8.59068648	    -17.07403957	     -7.65064616	      1.55568854
    157.00000000	      6.57000000	     -2.46576608	      6.16653796	    -36.79053242	     -8.18107695	    -18.19866953	     -7.09516604	      1.80929379
    158.00000000	      6.58000000	     -2.05194300	      6.57841310	    -33.71433431	     -7.82044850	    -19.31180718	     -6.54957433	      2.08627925
    159.00000000	      6.59000000	     -1.62439251	      6.95002883	    -30.46119178	     -7.41267092	    -20.37947661	     -6.02964872	      2.47055351
    160.00000000	      6.60000000	     -1.17059816	      7.22290258	    -27.05267814	     -6.93985861	    -21.47678015	     -5.51540686	      2.85644323
    161.00000000	      6.61000000	     -0.70618856	      7.45350296	    -23.51208995	     -6.43897324	    -22.53468301	     -5.03438208	      3.27556337
    162.00000000	      6.62000000	     -0.28530411	      7.66511957	    -19.87211991	     -5.91028383	    -23.54147771	     -4.59812247	      3.73660011
    163.00000000	      6.63000000	      0.15305746	      7.87304482	    -16.20794496	     -5.40660970	    -24.50057913	     -4.21698996	      4.22547479
    164.00000000	      6.64000000	      0.55494863	      8.09807770	    -12.56374747	     -4.94298699	    -25.39882498	     -3.89588590	      4.73636084
    165.00000000	      6.65000000	      0.92840563	      8.32167834	     -8.99962611	     -4.57711647	    -26.25584144	     -3.62957622	      5.26098253
    166.00000000	      6.66000000	      1.24052690	      8.51168029	     -5.57146705	     -4.36309141	    -27.09708896	     -3.40085574	      5.76532490
    167.00000000	      6.67000000	      1.56961557	      8.66450878	     -2.44801140	     -4.21684503	    -27.93162810	     -3.26589915	      6.26446078
    168.00000000	      6.68000000	      1.81553917	      8.76335440	      0.27023219	     -4.14708377	    -28.77042020	     -3.20339723	      6.66771712
    169.00000000	      6.69000000	      2.04084176	      8.87302061	      2.36311438	     -3.97365903	    -29.60340459	     -3.26440669	      7.07615416
    170.00000000	      6.70000000	      2.23941481	      9.00704496	      3.71559324	     -3.56465659	    -30.39861070	     -3.48585952	      7.37735182
    171.00000000	      6.71000000	      2.35070275	      9.22671904	      4.23956295	     -2.98329974	    -31.10985984	     -3.92305401	      7.71736277
    172.00000000	      6.72000000	      2.39632670	      9.55290463	      3.93160484	     -2.40188817	    -31.70717416	     -4.56399722	      7.98362892
    173.00000000	      6.73000000	      2.31991406	      9.92556147	      2.90878108	     -2.12942013	    -32.18523650	     -5.45507371	      8.19772738
    174.00000000	      6.74000000	      2.11639358	     10.27719255	      1.31048532	     -2.44031215	    -32.62711030	     -6.52288890	      8.33380322
    175.00000000	      6.75000000	      1.81458364	     10.58049299	     -0.61067441	     -3.36516984	    -32.96594634	     -7.81736797	      8.28149547
    176.00000000	      6.76000000	      1.46126015	     10.76463733	     -2.61620030	     -4.86101206	    -33.25807582	     -9.32726235	      8.05005544
    177.00000000	      6.77000000	      1.05061491	     10.82694724	     -4.51149295	     -6.65281268	    -33.43047214	    -11.07442510	      7.47235077
